<svg xmlns="http://www.w3.org/2000/svg" viewBox="0 0 100 41">
  <path d="M28.7 3.3c.2.1.3.3.4.6l.2.4v1.4l-.2.1-.3.3-.3.3-.2.1v.1l-.2.1-.1.1h-.2s-.1 0 0 0v-.2c-.1 0-.3 0-.7.3l-.4.2h-.3c0-.1 0-.2.2-.3 0-.1 0-.1 0 0h-.1l.3-.4.1-.2s-.2 0-.5.3l-.4.2c-.1 0-.2 0-.1-.2l.2-.2s.2 0 .3-.2a11.3 11.3 0 0 0 1.4-1.8l-.6-.2a34.2 34.2 0 0 0-11-.1h-.8l-.3.3.1.5c.2.3.2.6.2.7l-.2.7-.3.5a15.9 15.9 0 0 0-.7 1.4c0 .2-.1.3-.2.3l-.4.7-.4.8-.4.7-.3.4a3.1 3.1 0 0 0-.3.4v.2l-.2.4-.2.4-.1.2-.1.3-.3.6-.2.4v.1l-.1.2-.1.2v.1s0 .2-.2.3l-.2.6-.3.6-.1.3a14.7 14.7 0 0 1-1 2.2c0 .4-.1.6-.2.7l-.1.2-.1.3-.2.5-.3.7-.3.7-.2.7-.1.4v.2H8l.6-.1.8-.1.8-.2h.7l.6-.2h.5l.3-.1h.1l.3-.1h.8l.2-.2h.6l.8-.1h.6l.4.2.4.4.1.2.2.3.3.3v.7h-1.4l-2 .2-3 .5H10l-.2.2h-.3l-.3.2H9l-.3.1-.4.1c-.3 0-.5.2-.6.3-.1 0-.1.1 0 .1H8l-.4.1h-.8l-.2.5-.2.9v.4l-.2.3v.8l-.2 1v.6a5.2 5.2 0 0 1-.1 1v.9c0 .5 0 1.1.2 1.8a18.8 18.8 0 0 0 1.3 3.7l.8.9h.4l.6.2.7.1a3.6 3.6 0 0 0 1.8-.2 10.4 10.4 0 0 0 3-1.3l1-.8.4-.3.2-.2h.1l.1-.1.2-.2h.2l.1-.2.3-.3.3-.2h.4l.2-.2c0-.1 0 0-.2 0h-.2l.2-.3 1-1a9.3 9.3 0 0 0 1-.8l.7-.8a40.7 40.7 0 0 1 .8-1c0-.2.1-.3.2-.3h.2v.4h-.4v.2l-.3.2-.2.3-.2.2-.5.5a9.5 9.5 0 0 0-.5.7v.1c-.1 0-.3 0-.5.3l-.3.3-.2.1-.1.1-.2.3-.2.2-.1.2.2-.1.4-.4.5-.5-.4.5-.3.4-.3.2-.2.2-.1.1c-.1.2-.2.2-.3.2h-.2c-.1.1-.1.1 0 0v.1c0 .1 0 .2-.2.3l-.3.2-.3.3-.3.3h-.1l-.2.2-.3.2-.4.3-.4.3-.2.1h-.1l-.2.2-.3.3-.3.1.1.1c.2 0 .3 0 .5-.2.4-.2.4-.2.1 0-.2.3-.2.3 0 .2h.7c.3 0 .5-.2.6-.3l.2-.1s.2 0 .3-.2c.2 0 .4-.2.6-.4l.6-.4.6-.5.4-.4.3-.3.7-.6a97.2 97.2 0 0 0 1.5-1.5l-.2.3-.1.1s0 .2-.3.3l-.6.7-.7.8-.8.8a90.6 90.6 0 0 1-1.2 1.1l.5-.4h.3l-.5.5a15.3 15.3 0 0 1-1.8 1.6l-.7.3-.3.2a4.2 4.2 0 0 0-.6.3 14.9 14.9 0 0 1-1.4.6h-1.8l-.6-.1-.3-.1-.2-.1-.3-.1c-1-.4-2-1-2.8-1.6a8.2 8.2 0 0 1-2.2-2.4l-.2-.6a22.4 22.4 0 0 1-1-2.7v-1l-.1-.5v-1.3a19.5 19.5 0 0 0 0-2.4l.1-.8.1-.5H3l-.3.2h-.4l-.4.2-.6.2c-.2 0-.4-.2-.6-.4l-.3-.4v-.9c0-.1 0-.2-.2-.3v-.3l.2-.2a42.8 42.8 0 0 0 2.7-.9c.3 0 .5-.2.6-.3l.6-.5.2-.8.2-.6.2-.6.2-.5v-.3l.4-.9a9 9 0 0 1 .3-1A88.4 88.4 0 0 1 8 12.7l.1-.3.2-.3.1-.3.1-.4.2-.3V11l.1-.2.1-.3.6-1 .7-1.1.3-.8.3-.6a11.2 11.2 0 0 1 .5-.9l.2-.4c.2-.4.3-.6.1-.6l-.6.1-1.2.4-1.3.5-1 .4-.7.3-.8.4-1 .4-.2-.2-.2-.4-.2-.5c0-.2-.1-.3 0-.4L4 6l.1-.4v-1h.5c.2-.2.4-.2.7-.3l.8-.3.4-.2.4-.1.5-.2H8l.3-.1h.1L9 3l.6-.2.5-.1.5-.2.5-.1.6-.2A49.8 49.8 0 0 0 13 2h.2c.1.1.2 0 .4-.1l.2-.2h1l.4-.1.6-.2.7-.1h.7l.1.1c0-.2.2-.2.7-.3h1.2l1-.1h1.3a15.5 15.5 0 0 1 1.9 0l.1.1.2.1v.1l.4-.1h.7a10.2 10.2 0 0 1 2.1.5c.5.2 1 .4 1.3.7s.5.5.4.7l.2.4ZM7.2 23.6l.2.1.5-.1 1-.2 1.3-.2.8-.1.8-.2 1-.1 1-.2h1.4c.3 0 .5-.1.5-.2h-2l-.5.1-.6.1-.7.1-1 .2-1.2.1a15.3 15.3 0 0 0-2.5.6Zm5 0 1.9-.2a16.8 16.8 0 0 0 1.3-.3h.1l-.7-.1a20.6 20.6 0 0 0-2.9.3h-.8l-.8.2h-.6l-.5.1a7.5 7.5 0 0 0-1.4.3c-.2 0-.2.1 0 .1.1 0 .1 0 0 .1h.5l.5-.1h1.5l.4-.1.7-.1.8-.2ZM10.9 3.2c.2 0 .1 0 0 0h-.3l-.2.1-.5.2-.6.2h.6l.4-.2h.2c.2 0 .3-.1.3-.2h.1Zm0 .5h-.4l.2.1h.1Zm2.7-1v-.1l.8-.2a73 73 0 0 1 5.4-.7h.4l-.3-.1c-.2-.1-.3-.1-.4 0h-.1c-.1 0-.2-.1-.2 0h-.3a3 3 0 0 1-.5 0h-.8l-.3.1H17l-.4.1h-.4l-.5.1c-.2.1-.2 0-.2 0L15 2h-.3l-.2.2h-.4l-.3.1-.6.1a3 3 0 0 0-.7.3h-.3a12 12 0 0 0-1 .4h.4a7.6 7.6 0 0 0 .9-.2h.3l.1-.1h.2l.3-.1.1.1c.1 0 .1 0 0 0Zm-1.4 1H12h.2Zm.4-.4.2-.1c0-.1 0 0 0 0h-.3l-.2.1h.3Zm11.4-1 .4-.1-.1-.1-1-.1a22.2 22.2 0 0 0-4.7 0 28.8 28.8 0 0 0-4.2.8h-.1L14 3s0 .1.2 0h.3l.2-.1.1-.2h.3l-.2.1h-.2l.1.2h.6l.2-.1h1l.5-.2h1.4l.7-.1a85.8 85.8 0 0 1 1.7-.1h.8l.8-.2h.8c0 .1 0 .1.1 0h.6Zm-9.7.4c-.2 0-.2.1 0 .1Zm1.4 34.8v-.2h.3l-.2.1c0 .1-.1.1-.1 0Zm.2-35c-.1.1-.2.1-.2 0h.2ZM17 36.3h.2l-.2.3-.3.2h-.1c-.1 0 0 0 0-.1.2 0 .2-.1.3-.2l.1-.2Zm.2-.8H17h.2-.1Zm1.4-.5a9.7 9.7 0 0 1 1-.9l-.2.2-.3.4-.6.5-.5.5c-.3.3-.5.4-.5.3l.4-.3.7-.6Zm-.4 1.9h.1v.1H18l.1-.2Zm2.9-34h-.2l-.5-.2H20c-.1.2 0 .3.3.2h.7ZM25 35.4l-.2-.1-.1-.2-.2-.2h-.2c-.2 0-.4-.2-.7-.7l-.1-.5a5 5 0 0 1 .1-1.5l.1-.6.1-.5.1-.4.1-.6.2-.6.1-.6a8 8 0 0 1 .3-1v-.4l.2-.3.1-.7.2-.6c0-.2.1-.3.2-.3v-.2l.1-.4a15.4 15.4 0 0 1 .6-1.8l.2-.6v-.4l.2-.4.1-.5.3-.7a18.7 18.7 0 0 1 1-3l.5-1.1c.1-.3.3-.4.4-.5.2 0 .2-.2.3-.2 0-.1.2-.2.4-.1h.6l1.1.7.3.3-.2.6-.4 1-.2.4-.1.3-.1.2c0 .2-.1.1-.2.2v.3l-.1.2-.1.4-.1.3-.1.4-.2.4c0 .1 0 .3-.2.4l-.1.5c0 .2-.1.2-.2.3l-.1.4-.2.7-.1.4-.1.4-.1.3-.1.5-.2.4-.4.8v.4l.1-.2.2-.2.2-.2h.1l-.1.3-.4.5a1 1 0 0 0-.3.7l-.2.4-.1.4c0 .1 0 .2 0 0l.6-1 .2-.4V27c.1 0 .2 0 .3-.3l.4-.6.4-.8.4-.8c.4-.8.7-1.1.8-1.1v-.1l.2-.3.3-.4.1-.3.1-.2.2-.3.2-.2v-.2l.4-.5.5-.8c.1 0 .2-.1.1-.2s0 0-.1 0c-.1.1-.2.2-.1 0l.2-.3c.2-.2.3-.3.4-.2v-.1l.3-.3.5-.1h.2l.2.1c.1.2.3.2.4.2l.5.1.9.8c.2.2.2.6.3 1v3.6l-.1.6-.1.2v.3a2.5 2.5 0 0 1-.2.9c.2.1.4 0 .5-.3l.1-.2.1-.2v-.1c0-.1 0 0 0 0 .1 0 .2-.1.2-.3l.3-.3c.1 0 .2 0 .2-.2l.1-.2v.2H37l.1-.3.3-.6.4-.6c0-.2.1-.2.2-.3v.3l-.2.2h.1l.2-.3c0-.2.1-.3 0-.2v-.1l.1-.3c.1-.1.2-.2.2 0v-.4c.1-.1.2-.2.3-.1l.1-.1v-.4l.3-.1v-.3h.2v.4l-.3.4-.5.8c0 .3-.3.5-.6 1l-.1.3-.2.2-.1.2-.3.7-.4.8-.3.5-.2.4-.2.3-.2.4h.2l.4-.7 1-1.6a22.9 22.9 0 0 1 .7-1.3l.2-.4c0-.2.2-.3.3-.4a22.9 22.9 0 0 1 .4-.9l.2-.2.2-.4.2-.3.2-.4a31.2 31.2 0 0 0 .7-1l.5-.7.2-.3.2-.3.2-.3.3-.4.3-.4-.3.2c-.2.2-.3.2-.3.1.1 0 .1-.1 0 0v.3l-.2.2-.2.2h-.2v.4c0 .2-.2.3-.4.5l-.5.7-.3.5a6 6 0 0 1-.3.5l-.1-.1c-.1-.1 0-.2 0-.2V21l.3-.1v-.4c.2-.1.2-.2.2-.3h.1l.1-.1.1-.3.2-.1.2-.3v-.2c0 .2.1.2.1 0 0 0 .1 0 0-.1l.2-.2c0-.2.2-.3.3-.4l.3-.5.2-.3.2-.2.1-.1c.1 0 .1-.1 0-.2h.1l.3-.1.3-.1.2.1.4.2h.4a2 2 0 0 0 .3.5l.3.3.2.3.1.3.1.2v.2c.2 0 .2.1 0 .3l.1.3.2 1v5.6l.2 1.5v1.3a10.2 10.2 0 0 1 .1 1.1l.1.3v.6l.2.5.1.3.3-.3.4-.5h.2c.2 0 0 0 0 0 0 .2.1.3.2.2h.1s0 .2.2.3l.1.4c0 .2 0 .4-.2.5-.1.1-.2.2-.1.3 0 .1 0 .2-.2.3l-.4.1-.6-.2-.3-.1h-.1l-.3-.3-.3-.1c-.2 0-.4-.2-.7-.8a7.1 7.1 0 0 1-.8-3v-.6l-.1-.4v-.5l-.2-.8v-1.7l-.1-3.3-.1-1.5-.2-.7v-.4c-.2 0-.3.1-.4.4 0 .2-.1.3-.2.3l-.2.1v.3c-.1 0-.2 0-.3.2 0 .2-.1.3-.3.4l-.2.4c0 .2-.1.2-.2.2v.1l-.1.2-.2.2-.1.2v.2l-.1.2-.2.2a6 6 0 0 0-.9 1.4l-.2.4-.2.2-.1.3c0 .2 0 .3-.2.4a1 1 0 0 0-.3.5v.2l-.1.2-.2.2-.1.4-.3.7v.2l-.2.4-.2.5a4.5 4.5 0 0 0-.4 1.1l-.1.4-.2.3-.3.4h-.3l-.4-.1-.2-.1-.3-.2a.9.9 0 0 1-.5-.4c0-.2-.1-.2-.2-.3v.4c-.1 0-.2 0-.2-.2l-.2-.3-.2-.4-.2-.4a13 13 0 0 1 .2-3.5V24l.2-.6v-2l-.2.2-.2.4v.1l-.6.7-.1.2-.1.1v.2l-.2.2s-.1.1-.2 0v.2l-.2.1-.1.2v.2s-.1 0 0 .1l-.1.2a3.3 3.3 0 0 1-.4.6h-.2v.3s0 .1 0 0l-.2.1v.4l-.2.3-.2.4-.2.3v.3l-.1.1c-.1 0-.2 0-.2.2-.1.1-.1.2 0 .2v.2c-.1 0-.2.1-.3.4l-.4.7-.4.8-.2.4c0 .2-.1.3-.2.3h-.1c0 .2 0 .3-.2.5l-.3.5-.1.4-.6 1.7c0 .4-.2.8-.4 1.2l-.5.6h-.7l-.6-.1Zm-.6-1.6v-.4l.1-.6.1-.7a2 2 0 0 1 .1-.5v-.3l.2-.3v-.4l.3-.8.2-.8.2-.7v-.6c.2-.1.3-.4.4-.8l.5-1.6.2-.9.2-.7V23l-.1.2-.2.4v.6a16.5 16.5 0 0 1-.4 1.2l-.2.6-.2.6-.2.6v.4l-.2.3v.3l-.2.4v.4l-.2.5-.2.6-.2.8-.1.8-.1.6v.6l-.1.6v.4s0 .1 0 0v-.1Zm.8-1.5.2-.9a18 18 0 0 1 .8-2.6v-1.1l.2-.1.1-.2v-.2l.1-.3.1-.3h.1c.1 0 0-.1 0-.2v-.8l.3-.6v-.4l.2-.4.2-.8.2-.7v-.3l-.1.5-.3.8-.4 1.2-.2.9-.3.9a43.1 43.1 0 0 0-1.3 5l-.1.7v.4-.1l.1-.2v-.2Zm.9-2.1v-.3.3l-.2.3v.4l.1-.2.1-.2v-.3Zm.2-.6-.1.1v.1-.2Zm.3-1.2v.2c-.2.1-.2.3-.2.3l.1-.1v-.4Zm.6-2 .3-1.2V25l-.1.3v.3l-.2.3-.1.3c-.1 0 0 .2 0 .2v.2l-.1.3-.1.3-.1.6v.4-.4l.2-.5c0-.3 0-.5.2-.8Zm0 3.9.2-.5c0-.1 0-.1 0 0l-.2.2-.1.2-.1.3c-.1 0 0 .1 0 .2v.1-.2l.3-.3ZM28 24l.1-.5v-.2.2l-.3.5-.1.4v.3c0 .2 0 .2 0 0l.3-.7Zm0 5 .2-.3v-.2s-.2.1-.3.4l-.1.2v.2l-.2.1h.2c.2 0 .1-.2.2-.4Zm0-8.8V20l-.1.4v.3-.1l.2-.4Zm.2-.7v.1-.1Zm.4 8.4.1-.2.2-.2v-.2h-.2l-.2.4-.2.3v.2h.1l.2-.3Zm.6-1.2.3-.4.3-.6c0-.2.1-.3.3-.5l.2-.3v-.1l.2-.3.1-.2.1-.2s0-.2.3-.4l.2-.3.2-.4.4-.4.1-.3h-.1l.4-.5.4-.6c0-.1 0-.2.3-.4.2 0 .3-.2.3-.2v-.3c.1 0 .2 0 .3-.2l.1-.2a4 4 0 0 0-.6.6l-.3.3-.3.3-.1.3-.2.2-.3.4-.4.7-.5.8a9 9 0 0 0-.4.6l-.3.6c0 .2-.2.3-.3.5l-.2.3-.1.1-.1.3-.3.5-.2.5-.1.2h.1l.2-.4Zm0-1.8.2-.2v.2H29Zm1.3 1.5.1-.4.2-.3v-.1l-.1.2-.1.1-.2.2-.1.2-.1.3-.1.3.2-.2.2-.3ZM31 25l-.2-.1v.4l.2-.2Zm.4-.8.2-.3h-.1l-.3.5v.2l.2-.4Zm1.3-4.5v-.1l-.1.1c-.1.1-.2.1 0 .1Zm1.5 7.2a57.2 57.2 0 0 1 .1-1.4v-.7l.2-.3v-2.1l-.1-.5v.5l-.1.6v.6l-.1.6v.3a51.2 51.2 0 0 0 0 2.4Zm.3 1v-.4l-.1.1v.7-.4Zm0-1 .1-.7V26l-.1.2v.7l-.1.2v.2l.2-.4Zm2.2-2v-.2s.1-.1.2 0v.2c-.2.1-.2.2-.2 0Zm1.8-.6.1-.2.1-.2-.1.2c-.2.1-.3.3-.4.6l-.2.4.2-.3.3-.5Zm1.2-1.8.3-.6c0-.1.1-.2 0-.2l-.3.5-.3.5h.2l.1-.2Zm1.6-2.4.2-.4-.3.3-.3.4c0 .2.1 0 .4-.3Zm.4-.7c-.2 0-.2.1 0 .1Zm1.9 5v-2.8l-.1-.9v-.3c0-.2-.1-.2-.3-.2h-.1v1c0 .1.1.1.1 0V21l.1.7v1.6a24.5 24.5 0 0 0 .3 4.2 79.4 79.4 0 0 1 .2 1.5v.8a111.7 111.7 0 0 1-.2-5.5Zm-.4-4.5v.1-.1Zm.7 4.8v-.2l-.1.2v.1l.1-.1Zm0 1v-.6l.2 2.4v.7-1.1l-.2-.8v-.5Zm.2 4.6-.1.1v.4l.1-.1v-.3Zm.2-1.3v-.4l-.1.1v.7l.1-.3Zm7.3 4.8h-.3l-.8-.3-.2-.2-.3-.2-.2-.1-.1-.1-.6-.5-.4-.3c0-.2-.2-.2-.2-.3l-.6-1c-.2-.4-.2-.8-.1-1.1a23.3 23.3 0 0 1 .8-3.5L49 25l.4-1.2A60.2 60.2 0 0 1 51 20c0-.2.3-.2.8 0l.3.2h.2c.1 0 .3.2.4.5l.3.6v.6l-.2.5-.1.3-.3.8-.4 1a56.8 56.8 0 0 0-1.2 4.2l-.1.8-.2.7v1.1c0 .3 0 .5.2.5h.1l.3-.2.2-.1h.2l.2-.2.3-.1.3-.2.3-.3.2-.1.1-.2.1-.2.2-.1.1-.2.2-.2.3-.4.4-.4v.1l.1-.1c0-.2 0-.3.3-.4l.6-.6 1.4-2 .6-.7a12 12 0 0 1 .4-.6v-.1l.2-.2.1-.2h.1l-.4.8-.7 1v.3c0 .1 0 .1-.2 0l-.1.1v.2l-.3.1v.3l-.1.2-.2.3v.2l-.2.1-.2.2-.1.2-1.3 1.8-.6.6a22.8 22.8 0 0 1-.5.6c.1 0 .3 0 .5-.3a10.7 10.7 0 0 1 .8-.6l.1-.2.3-.3.8-1 1.3-1.8.4-.5.2-.3.2-.3.2-.3a19.4 19.4 0 0 0 .7-1l.3-.7.3-.4.3-.3v.3l-.1.2v.1c-.2 0-.2 0-.1.3h-.1l-.2.2c0 .1 0 .3-.2.5l-.1.4-.1.5c-.2.5-.4 1-.8 1.4l-.2.4-.3.4c-.4.5-.5.6-.5.4l.1-.2.2-.3.4-.5a6.8 6.8 0 0 0 .4-.7h-.1l-.2.2c-.1.1-.2.2-.3.1s-.1 0-.2.2l-.1.3-.3.3-.3.4-.4.5-.4.6-.5.5-.3.5a5 5 0 0 1-.4.4v.1c-.2.2-.1.2 0 .2l.4-.4.3-.3h.2l.4-.1.3-.3v.1l-.5.6-.2.4-.2.2v.2l-.2.2v.2c.3 0 0 .2-.6.8a15.3 15.3 0 0 0-1 .7v.2l-.3.1-.2.1-.1.1-.6.2h-.4Zm-2.7-5.4V28l.1-.2.1-.5.2-.6.1-.4.2-.5.1-.5v-.2.1l-.3.8-.3 1-.2.7-.1.5-.1.4a3.6 3.6 0 0 0-.2.8s0 .1 0 0l.2-.3.1-.5v-.3Zm.4-.4v.2-.2Zm4.4-11c0-.1-.2-.2-.4 0-.2 0-.4 0-.4-.2l-.2-.3a2 2 0 0 0-.4-.3l-.3-.5-.1-.4.4-.8.3-.6.2-.3s0-.1 0 0l.2.1v.3-.3l.3-.3h.5l.1.2c0 .1.1.2.4.2l.4.3h.1c.1 0 .2 0 .2.2v.6l-.3.4a4.3 4.3 0 0 0-.2.9v.1l-.1.2v.2l-.2.2c-.1.2-.2.2-.3.2l-.2-.1Zm-1.2-2.2c0-.1 0-.1 0 0l-.2.2h.1l.1-.2Zm2 14v.1Zm1.5.4h.1-.1Z"/>
  <path d="m74 1.9-.3.3-.6.7-.7.8-1 .8-.1.2-.2.3-.2.3-.4.5-.4.5-.4.5a9 9 0 0 1-1 1.4l-.4.4v.2l-.3.4-.2.4-.3.5-.3.4-.2.4a2 2 0 0 0-.3.4v.1l-.2.3-.1.2-.3.5-.2.4-.3.5a30.5 30.5 0 0 0-3.9 11l-.3 1.6A25.7 25.7 0 0 0 61 30v.5a18.4 18.4 0 0 0 .4 4.2l.4 1 .1.2.2.4 1.2 2c.2 0 .2.2.2.2l-.2.4a1 1 0 0 1-.7.2h-.7l-.1-.1-.3-.1-.4-.1c-.2-.1-.2-.2-.2-.3v-.1s-.1 0 0 .1l-.1.2c-.1 0-.2 0-.3-.2-.3-.2-.5-.4-.6-.7a14.6 14.6 0 0 1-2-8.6v-1l.1-.8.2-1.4a33.9 33.9 0 0 1 1.3-6.3L60 18l.6-1.7a26.2 26.2 0 0 1 .6-1.6l.1-.3.2-.5.3-.5.2-.4.1-.2.2-.2.1-.3.2-.5.7-1.1.7-1.5a22 22 0 0 1 1.6-2.6l.2-.2.2-.4.4-.6A41 41 0 0 1 69 2.1l.5-.4.4-.4.3-.3.3-.1.5-.4.4-.3h.7l.4.2v.2h.3l.5.1.5.6.2.3v.2ZM58.3 30.2v-.3c0-.1 0-.1 0 0v.3Zm.5 1.2v.1-.2.1Zm0 .4s0 .1 0 0v-.1.1Zm0 .4c.1 0 .1-.1 0-.2v.2Zm.2 1v-.3.3c0 .1 0 0 0 0Zm0-6c.1-.1 0-.2 0-.2v.3-.1Zm1-7.3v-.3.1l-.1.2v.3-.3Zm25.4 6v.1a100.6 100.6 0 0 0-1.8 2.8l-.4.5-.2.2a11.8 11.8 0 0 1-.7.9 14.1 14.1 0 0 1-6.4 4.2h-.8l-.2-.2h-.3l-.3-.2h-.2a3.8 3.8 0 0 1-.9-.4l-.5-.4-.4-.3-1.2-1.2a4 4 0 0 1-.6-1.1 15 15 0 0 1-.4-4.4c0-.5 0-1 .2-1.4l.3-1a15.2 15.2 0 0 1 1.7-3.8l.4-.6.2-.4a5 5 0 0 1 .7-.7l.3-.2.3-.2.1-.1.3-.4c.1-.2.4-.3.6-.4l.7-.5.4-.2h.6c.5 0 .8 0 1 .2l.5.3.5.3 1 .7.8.9.2.5v.7c0 .5 0 1-.4 1.7a11 11 0 0 1-1.1 2l-.3.4-.2.3-.2.2-.3.4c0 .2-.1.2-.2.3l-.1.2-.1.1-.2.3-.2.4-.4.4a4.2 4.2 0 0 0-.5.5s0 .2-.3.4l-.7.7-.7.7-.4.3h-.4a1 1 0 0 0-.3.3h-.1l-.4.3a2.4 2.4 0 0 0-.4.3v.3l.1.6a24.8 24.8 0 0 0 .3.9c0 .1 0 .2.2.2h1.8c.2 0 .5 0 .7-.2.3 0 .6-.2 1-.5l.3-.2s.1-.1.1 0l-.2.2-.5.4a30 30 0 0 0 3.3-2.4 13.8 13.8 0 0 0 1.3-1.1l.3-.3.1-.2.3-.5.3-.4.2-.2.1-.1s0-.2.2-.3l.2-.3v.2l-.1.3-.2.2-.1.1v.3l-.3.3h-.2v.3l-.3.4-.3.4-.2.3-.3.3v.3h.2l.4-.5.4-.4.3-.4.3-.5.3-.4.3-.3.2-.2v-.2l.3-.3.2-.3.2-.4.4-.6.2-.2v-.1l.1-.2.1-.2.1-.2.2.3a56.8 56.8 0 0 1-3 4.7v.3l.2-.3.2-.3.2-.1.3-.3.3-.5.5-.7.5-.8.3-.5.2-.3.2-.4.2-.3v.8Zm-12.1 0-.2.5v.6l-.2.6v1h.2v-.2l.1-.2h.2l.3-.3.2-.2.1-.2.1-.1.2-.2V27h.1l.3-.3.2-.2v-.2l.4-.3.5-.6V25l.1-.1.2-.2.5-.7a47.8 47.8 0 0 0 1.6-2.7l.2-.4a7.2 7.2 0 0 0 .3-1.2l.1-.6v-.7c0-.3-.2-.4-.3-.4l-.1.1-.4.4a5 5 0 0 1-.7.8 3 3 0 0 0-.7.5l-.2.3h-.2l-.2.3-.1.2-.3.4-.6.9-.4.7-.1.4-.1.3-.2.4-.4.7-.2.7c0 .2-.2.3-.2.3v.2l-.1.2Zm2 1.5.2-.2h-.1l-.2.3-.1.1.2-.2Zm.4-.4v-.1h-.1l.1.1Zm.3-.4v-.1h-.1Zm.5-.7v-.1h-.1v.1Zm.7-1v-.2l-.1.2h.1Zm6.9 0v.2l-.1.2c-.2 0-.2.1-.2.2l-.1.1-.1.2c0 .2 0 .3-.2.3h-.2v-.2l.3-.3.3-.5.1-.1v-.1h.2Zm.2-.2.1-.2-.1.2Zm-.4 12.8.3-.3.5-.7.8-.8 1-.9v-.1l.2-.3.3-.3.3-.5.5-.5.3-.5a9 9 0 0 1 1.1-1.5c.2 0 .3-.2.3-.3l.1-.2.2-.4.3-.4c0-.2.2-.3.3-.5l.2-.4.3-.4.1-.3.1-.1.1-.2.1-.2.2-.2.3-.5c0-.1 0-.3.2-.5l.3-.5a24.3 24.3 0 0 0 2.5-5.8l.3-.8.3-1 .4-1.5.4-1.8a24 24 0 0 0 .6-5.2v-1a10.4 10.4 0 0 0-.2-3l-.2-1.3-.4-.8a8.3 8.3 0 0 1-.3-.7 5.8 5.8 0 0 0-1.2-2l-.2-.3.3-.3.2-.2H96l.2.1.3.1.3.1.3.3V.6s.3 0 .4.2l.6.7a12 12 0 0 1 1.6 3.8 17.2 17.2 0 0 1 .4 3.3V11l-.2.9a16.6 16.6 0 0 1-.4 3 48.7 48.7 0 0 1-1.5 6.4l-.4 1.2-.4 1-.3.7-.2.4v.3l-.2.4-.3.6a12.2 12.2 0 0 1-.3.5l-.2.2-.1.4-.3.5-.6 1.1a42 42 0 0 1-2.2 4h-.2l-.1.3-.2.3-.4.6-1.1 1.5-.8 1-.4.4-.4.5-.8.8-.6.4h-.2l-.3.3c-.2.2-.3.3-.5.3h-.7c-.2 0-.3 0-.3-.2s-.1-.2-.4-.2l-.4-.1c-.2 0-.4-.3-.6-.5l-.2-.3v-.3Zm14-18v.2l.1-.3v-.2l-.1.2Zm.9-7.3v.2-.4.1Zm0-6v.3h.2v-.3h-.1Zm.2 1v.1-.1c0-.1 0-.1 0 0Zm0 .4c.1-.2 0-.2 0-.1v.2-.1Zm0 .3c.1-.1 0-.2 0 0V8Zm.6 1.3v.2c0 .2 0 .2 0 0v-.2Z"/>
</svg>
