<svg xmlns="http://www.w3.org/2000/svg" viewBox="0 0 256 256">
  <rect width="256" height="256" rx="12" ry="12" style="fill:#191818"/>
  <path d="M227.1 132.5v1.3c-8 11.9-15.7 24-23.3 36.2l-5.2 6.5-2.6 2.6a182 182 0 0 1-91.7 65.9H94l-2.6-2.6h-3.9l-3.9-2.6H81c-4.1-1.2-8-3-11.6-5.2l-6.5-5.2-5.2-3.9L42.2 210a54.6 54.6 0 0 1-7.8-14.2 194.6 194.6 0 0 1-5.2-56.9c0-6.5 0-12.9 2.6-18.1l3.9-12.9c5-17.3 12.4-33.8 22-49.1l5.2-7.8 2.6-5.2c2.7-3.3 5.7-6.3 9-9l3.9-2.6 3.9-2.6 1.3-1.3 3.9-5.2c1.3-2.6 5.2-3.9 7.8-5.2l9-6.5 5.2-2.6h7.8c6.5 0 10.3 0 12.9 2.6l6.5 3.9 6.5 3.9 12.9 9 10.3 11.6 2.6 6.5v9c0 6.5 0 12.9-5.2 22-3.8 9.1-8.6 17.8-14.2 25.9l-3.9 5.2-2.6 3.9-2.6 2.6-3.9 5.2c0 2.6-1.3 2.6-2.6 3.9l-1.3 2.6-1.3 1.3-2.6 3.9-2.6 5.2-5.2 5.2a57 57 0 0 0-6.5 6.5s0 2.6-3.9 5.2l-9 9-9 9-5.2 3.9h-5.2c-1.6 1-2.9 2.3-3.9 3.9H77l-5.2 3.9a28.3 28.3 0 0 0-5.2 3.9v3.9l1.3 7.8c1.2 3.9 2.5 7.8 3.9 11.6 0 1.3 0 2.6 2.6 2.6h23.3c2.6 0 6.5 0 9-2.6 3.9 0 7.8-2.6 12.9-6.5l3.9-2.6s1.3-1.3 1.3 0l-2.6 2.6-6.5 5.2a393.7 393.7 0 0 0 42.7-31c5.9-4.4 11.5-9.1 16.8-14.2l3.9-3.9 1.3-2.6 3.9-6.5 3.9-5.2 2.6-2.6 1.3-1.3s0-2.6 2.6-3.9l2.6-3.9v2.6l-1.3 3.9-2.6 2.6-1.3 1.3v3.9l-3.9 3.9h-2.6v3.9l-3.9 5.2-3.9 5.2-2.6 3.9-3.9 3.9v3.9h2.6l5.2-6.5 5.2-5.2 3.9-5.2 3.9-6.5 3.9-5.2 3.9-3.9 2.6-2.6v-2.6l3.9-3.9 2.6-3.9 2.6-5.2 5.2-7.8 2.6-2.6v-1.3l1.3-2.6 1.3-2.6 1.3-2.6 2.6 3.9a727.4 727.4 0 0 1-38.8 60.8v3.9l2.6-3.9 2.6-3.9 2.6-1.3 3.9-3.9 3.9-6.5 6.5-9 6.5-10.3 3.9-6.5 2.6-3.9 2.6-5.2 2.6-3.9v11.6Zm-156.5 0L68 139v7.8l-2.6 7.8v12.9H68v-2.6l1.3-2.6h2.6l3.9-3.9 2.6-2.6 1.3-2.6 1.3-1.3 2.6-2.6v-2.6h1.3l3.9-3.9 2.6-2.6v-2.6l5.2-3.9 6.5-7.8v-5.2l1.3-1.3 2.6-2.6 6.5-9c7.3-11.4 14.2-23 20.7-34.9l2.6-5.2c1.7-5.1 3-10.2 3.9-15.5l1.3-7.8v-9c0-3.9-2.6-5.2-3.9-5.2l-1.3 1.3-5.2 5.2a63.3 63.3 0 0 1-9 10.3 36.3 36.3 0 0 0-9 6.5l-2.6 3.9h-2.6l-2.6 3.9-1.3 2.6-3.9 5.2-7.8 11.6-5.2 9-1.3 5.2-1.3 3.9-2.6 5.2-5.2 9-2.6 9c0 2.6-2.6 3.9-2.6 3.9v2.6l-1.3 2.6v1.3Zm25.9 19.4 2.6-2.6h-1.3l-2.6 3.9-1.3 1.3 2.6-2.6Zm5.2-5.2v-1.3h-1.3l1.3 1.3Zm3.8-5.1v-1.3h-1.3l1.3 1.3Zm6.5-9.1v-1.3h-1.3v1.3h1.3Zm9-12.9V117l-1.3 2.6h1.3Zm89.3 0v2.6l-1.3 2.6c-2.6 0-2.6 1.3-2.6 2.6l-1.3 1.3-1.3 2.6c0 2.6 0 3.9-2.6 3.9h-2.6v-2.6l3.9-3.9 3.9-6.5 1.3-1.3v-1.3h2.6Zm2.5-2.6 1.3-2.6-1.3 2.6Z" style="fill:#f2f2f2"/>
</svg>
